<?xml version="1.0" encoding="UTF-8"?>
<svg version="1.1" xmlns="http://www.w3.org/2000/svg" width="500" height="500">
<path d="M0 0 C0.53141602 0.43666992 1.06283203 0.87333984 1.61035156 1.32324219 C12.38070968 10.19107113 23.06636944 19.24513575 32 30 C32.80695313 30.91910156 33.61390625 31.83820313 34.4453125 32.78515625 C76.09169279 80.37453852 96.19256423 143.60755184 92.55493164 206.47387695 C90.05608487 241.53070908 80.5589016 274.99974322 64 306 C63.64824707 306.66483398 63.29649414 307.32966797 62.93408203 308.01464844 C54.06243726 324.67340433 43.02088837 339.55327596 30.2890625 353.48828125 C28.74739771 355.1799032 27.22154556 356.88605651 25.7109375 358.60546875 C21.09621899 363.84658376 16.35094179 368.52550557 11 373 C10.06671875 373.82113281 9.1334375 374.64226562 8.171875 375.48828125 C-42.42870492 419.78967031 -107.60123386 436.5618746 -173.6953125 432.7890625 C-214.46029532 429.48379362 -255.78535794 413.7064711 -289 390 C-289.89984619 389.36288086 -289.89984619 389.36288086 -290.81787109 388.71289062 C-300.64511093 381.71212394 -309.62405875 374.10363409 -318.265625 365.6875 C-319.90547243 364.09197277 -321.56040286 362.51375075 -323.21875 360.9375 C-330.5828676 353.85454502 -336.91346654 346.19566137 -343 338 C-343.43054688 337.42491699 -343.86109375 336.84983398 -344.3046875 336.25732422 C-350.8142849 327.52114861 -356.60451752 318.46124918 -362 309 C-362.34272949 308.40638672 -362.68545898 307.81277344 -363.03857422 307.20117188 C-378.4581725 280.30360551 -387.25751759 249.64562155 -391 219 C-391.09571289 218.27216309 -391.19142578 217.54432617 -391.29003906 216.79443359 C-392.26639452 208.5164091 -392.2436414 200.19872882 -392.25 191.875 C-392.25067474 191.07898376 -392.25134949 190.28296753 -392.25204468 189.46282959 C-392.23371663 175.79010826 -391.44577201 162.47870349 -389 149 C-388.8443457 148.12408203 -388.68869141 147.24816406 -388.52832031 146.34570312 C-381.66870885 109.29558611 -366.29034878 73.681879 -343 44 C-342.30777344 43.11699219 -341.61554688 42.23398438 -340.90234375 41.32421875 C-335.24146539 34.26559265 -329.22159742 27.56302655 -323 21 C-322.29037109 20.24734863 -322.29037109 20.24734863 -321.56640625 19.47949219 C-314.50141862 12.03636498 -307.00931088 5.50571147 -298.79882812 -0.64550781 C-297.02307817 -1.98262246 -295.26879577 -3.34440877 -293.515625 -4.7109375 C-260.89312811 -29.78580145 -220.61498357 -44.7309769 -180 -50 C-179.32179199 -50.0942627 -178.64358398 -50.18852539 -177.94482422 -50.28564453 C-115.82802709 -57.79663082 -48.39055612 -40.09503222 0 0 Z " fill="#010101" transform="translate(400,60)"/>
<path d="M0 0 C0.00586624 1.29102127 0.01173248 2.58204254 0.01777649 3.91218567 C0.07511359 16.10856462 0.14793259 28.30476716 0.23571491 40.50096607 C0.28034699 46.77040624 0.31961901 53.03978248 0.34643555 59.30932617 C0.37253979 65.36543076 0.41299279 71.42128846 0.46318626 77.47723961 C0.47980683 79.78192754 0.49135093 82.08665813 0.49761391 84.39139748 C0.50730729 87.63204147 0.53542951 90.87206059 0.56762695 94.11254883 C0.56619186 95.05482834 0.56475677 95.99710785 0.5632782 96.96794128 C0.68061347 105.37734619 1.958756 114.21917947 7.1875 121.0625 C7.80496094 121.88105469 8.42242187 122.69960937 9.05859375 123.54296875 C9.69925781 124.35378906 10.33992188 125.16460937 11 126 C11.91458984 127.20076172 11.91458984 127.20076172 12.84765625 128.42578125 C18.18479345 135.2972084 24.06394841 141.64929775 30 148 C40.2299551 143.93180855 48.60171908 129.59470572 55 121 C55.49385193 120.41146744 55.98770386 119.82293488 56.496521 119.21656799 C64.18947956 107.874896 62.60437116 91.43088443 62.609375 78.44140625 C62.62438428 76.19838789 62.6411171 73.95538046 62.65948486 71.71238708 C62.70286202 65.85834192 62.72309133 60.00444576 62.73822021 54.15026855 C62.7578989 48.15673112 62.7998563 42.16335213 62.83984375 36.16992188 C62.91482436 24.44666382 62.96530973 12.72344176 63 1 C66.75551851 2.75551181 69.18466012 4.92652453 72.1328125 7.8671875 C72.61072235 8.3431839 73.0886322 8.8191803 73.58102417 9.30960083 C74.58691227 10.31413209 75.59029575 11.32117688 76.59130859 12.33056641 C78.1199101 13.86987445 79.65888159 15.39822697 81.19921875 16.92578125 C82.17772522 17.9056094 83.15561106 18.88605782 84.1328125 19.8671875 C85.01855957 20.75519043 85.90430664 21.64319336 86.81689453 22.55810547 C88.73184131 24.70005331 89.84086272 26.4143425 91 29 C91.495 29.433125 91.99 29.86625 92.5 30.3125 C97.22044663 35.62300246 96.30645477 44.01540166 96.30078125 50.63671875 C96.30506638 51.75254837 96.3093515 52.86837799 96.31376648 54.01802063 C96.31949445 56.37390466 96.32002137 58.72980638 96.31567383 61.08569336 C96.31252568 64.6583541 96.3359524 68.23017655 96.36132812 71.80273438 C96.36360269 74.10156147 96.36430388 76.40039076 96.36328125 78.69921875 C96.372491 79.75276047 96.38170074 80.80630219 96.39118958 81.89176941 C96.33313743 91.37557495 95.06981152 100.97704303 89.5625 108.9375 C88.98628906 109.79214844 88.41007813 110.64679688 87.81640625 111.52734375 C84.08558838 116.60607001 84.08558838 116.60607001 82 119 C81.34 119 80.68 119 80 119 C79.73832031 119.59941406 79.47664062 120.19882813 79.20703125 120.81640625 C77.92779812 123.13061764 76.73749558 124.29659445 74.6875 125.9375 C69.49960114 130.22687617 65.07746382 135.00411673 60.6953125 140.09765625 C59 142 59 142 56.375 144.4375 C51.02876115 150.20581033 47.94927096 156.72279132 47.79467773 164.58496094 C47.77473251 165.48559265 47.75478729 166.38622437 47.73423767 167.31414795 C47.71752518 168.27782288 47.70081268 169.2414978 47.68359375 170.234375 C47.6524221 171.72411835 47.6524221 171.72411835 47.62062073 173.24395752 C47.55530251 176.41256882 47.49632261 179.58126211 47.4375 182.75 C47.39429793 184.89974802 47.35068309 187.04948778 47.30664062 189.19921875 C47.19963929 194.46605949 47.09784009 199.73298155 47 205 C50.85352952 202.76962018 53.71985501 200.46754988 56.8125 197.25 C59.69918799 194.25500235 62.63724974 191.41728757 65.7890625 188.70703125 C70.26864494 184.82946677 74.41274198 180.66236676 78.5625 176.4375 C86.52991311 168.32665911 86.52991311 168.32665911 90.828125 164.72265625 C93.28597882 162.66151359 95.31907494 160.63004113 97.1875 158 C97.67089844 157.32195312 98.15429688 156.64390625 98.65234375 155.9453125 C99.09707031 155.30335938 99.54179687 154.66140625 100 154 C101.11375 152.453125 101.11375 152.453125 102.25 150.875 C104.0192315 147.96840539 105.06780754 145.2626736 106 142 C106.66 142 107.32 142 108 142 C108.495 94.975 108.495 94.975 109 47 C109.99 47 110.98 47 112 47 C112.598125 47.9075 113.19625 48.815 113.8125 49.75 C115.79226789 53.13633716 115.79226789 53.13633716 119 55 C122.44285535 57.2952369 123.71752729 59.57629093 126 63 C127.28170676 64.20041457 128.59732354 65.36523376 129.9375 66.5 C136.02035912 71.65745198 141.90308579 77.87403845 143.36303139 86.02742958 C143.49407652 88.15777923 143.50725063 90.25392728 143.4699707 92.38793945 C143.4721611 93.18408157 143.4743515 93.98022369 143.47660828 94.80049133 C143.47890081 97.40519181 143.4527753 100.00873355 143.42578125 102.61328125 C143.42085252 104.43311708 143.41755679 106.25295801 143.41581726 108.07279968 C143.40820191 111.87299988 143.38771098 115.67282011 143.35668945 119.47290039 C143.31697515 124.34652975 143.29905485 129.21991329 143.28938007 134.0936861 C143.27941844 138.74608444 143.25953935 143.39842283 143.23828125 148.05078125 C143.2348855 148.9386413 143.23148975 149.82650135 143.2279911 150.74126625 C143.21643103 153.24726152 143.19791557 155.75310064 143.17700195 158.2590332 C143.17431305 159.00243958 143.17162415 159.74584595 143.16885376 160.51177979 C143.13638207 163.6091588 142.98717804 166.03846588 142 169 C141.34 169 140.68 169 140 169 C139.86722656 169.62648438 139.73445312 170.25296875 139.59765625 170.8984375 C139.42105469 171.71570313 139.24445313 172.53296875 139.0625 173.375 C138.88847656 174.18710937 138.71445312 174.99921875 138.53515625 175.8359375 C138 178 138 178 137 180 C136.34 180 135.68 180 135 180 C134.87753906 180.59167969 134.75507813 181.18335938 134.62890625 181.79296875 C133.17179887 186.90642012 129.52343046 190.69302821 125.53515625 194.01171875 C119.8912931 198.86947469 114.72571532 204.20327852 109.5 209.5 C98.46190961 220.68807415 98.46190961 220.68807415 94.19921875 224.32421875 C88.2896267 229.38156786 82.80371122 234.89732089 77.28100586 240.36889648 C75.96862308 241.66467712 74.65089194 242.95506312 73.32788086 244.23999023 C59.67121784 257.34407915 59.67121784 257.34407915 54.79467773 275.12597656 C54.77473251 275.92650452 54.75478729 276.72703247 54.73423767 277.55181885 C54.71752518 278.40612488 54.70081268 279.26043091 54.68359375 280.140625 C54.6524221 281.46389801 54.6524221 281.46389801 54.62062073 282.81390381 C54.55535133 285.62585831 54.49634553 288.43790445 54.4375 291.25 C54.39429327 293.15886356 54.35067829 295.06771793 54.30664062 296.9765625 C54.19969313 301.65094826 54.09836215 306.32542602 54 311 C47.60962769 311.02527062 41.21926817 311.04283317 34.82885742 311.05493164 C32.65307127 311.05997308 30.47728853 311.06680607 28.30151367 311.07543945 C25.18146933 311.08751338 22.06146962 311.09323005 18.94140625 311.09765625 C17.96224747 311.10281754 16.98308868 311.10797882 15.97425842 311.11329651 C15.07340012 311.11337204 14.17254181 311.11344757 13.24438477 311.11352539 C12.04858543 311.11685631 12.04858543 311.11685631 10.82862854 311.12025452 C9 311 9 311 8 310 C7.88896029 307.25764417 7.83831773 304.53630324 7.82421875 301.79296875 C7.80098302 300.07355597 7.77686428 298.35415495 7.75195312 296.63476562 C7.71712171 293.92741476 7.6876656 291.22048498 7.67407227 288.51293945 C7.65837289 285.89742373 7.61798945 283.28314745 7.57421875 280.66796875 C7.57612717 279.87996384 7.57803558 279.09195892 7.58000183 278.28007507 C7.34764294 267.33664541 4.01424879 259.10220185 -3.72850037 251.36512756 C-4.61086868 250.52404953 -5.493237 249.6829715 -6.40234375 248.81640625 C-7.31705948 247.9130101 -8.23177521 247.00961395 -9.17420959 246.07884216 C-11.58304956 243.70022065 -14.01488281 241.34660429 -16.45281982 238.99786377 C-18.92507951 236.60772478 -21.3746539 234.19457984 -23.82617188 231.78320312 C-28.18628154 227.49991408 -32.56823648 223.23966887 -36.95855713 218.98736572 C-38.63928452 217.35116025 -40.30696653 215.70465184 -41.96166992 214.04223633 C-44.0273696 211.97257795 -46.17325707 210.04862804 -48.375 208.125 C-53.03961274 203.95288031 -57.50614067 199.60604885 -61.9375 195.1875 C-62.91372314 194.21804443 -62.91372314 194.21804443 -63.90966797 193.22900391 C-64.52600098 192.6107373 -65.14233398 191.9924707 -65.77734375 191.35546875 C-66.32640381 190.80528076 -66.87546387 190.25509277 -67.44116211 189.68823242 C-72 184.75097886 -72 184.75097886 -72 182 C-72.66 182 -73.32 182 -74 182 C-76.05078125 176.62890625 -76.05078125 176.62890625 -77 174 C-77.50635986 172.81760742 -78.01271973 171.63521484 -78.53442383 170.41699219 C-80.94953386 163.09534096 -80.43086167 155.32051487 -80.3984375 147.69921875 C-80.40046267 146.01446914 -80.40337778 144.32972039 -80.40713501 142.64497375 C-80.41154117 139.12398891 -80.40518514 135.60323342 -80.39111328 132.08227539 C-80.37406203 127.60063903 -80.38384758 123.11954342 -80.40183067 118.63792706 C-80.41274887 115.16060932 -80.40918497 111.68341656 -80.4014473 108.20609474 C-80.39946534 106.55531562 -80.40183291 104.90452463 -80.40888596 103.25375938 C-80.48669124 79.92107368 -80.48669124 79.92107368 -74.64453125 72.546875 C-73.70996094 71.62390625 -72.77539062 70.7009375 -71.8125 69.75 C-71.30219238 69.23477783 -70.79188477 68.71955566 -70.26611328 68.1887207 C-69.14632559 67.06311637 -68.01663596 65.94729607 -66.87841797 64.84033203 C-64.79372378 62.79790614 -62.75744983 60.71320546 -60.72265625 58.62109375 C-59.27457936 57.14211031 -57.82537316 55.66423167 -56.375 54.1875 C-55.67608643 53.4749707 -54.97717285 52.76244141 -54.25708008 52.02832031 C-53.60247803 51.3731543 -52.94787598 50.71798828 -52.2734375 50.04296875 C-51.68997559 49.45539795 -51.10651367 48.86782715 -50.50537109 48.26245117 C-49 47 -49 47 -47 47 C-47 76.7 -47 106.4 -47 137 C-46.34 137 -45.68 137 -45 137 C-44.8040625 137.72703125 -44.608125 138.4540625 -44.40625 139.203125 C-41.33035655 149.54449091 -36.64211413 158.35114768 -28 165 C-27.0270181 166.07303145 -26.08539327 167.17589191 -25.1875 168.3125 C-22.41699158 171.64277866 -19.36580588 174.3830509 -16.0703125 177.18359375 C-13.95127817 179.04274652 -11.97552383 180.98961399 -10 183 C-7.48044611 185.55869259 -4.91881218 187.98170611 -2.1875 190.3125 C1.86516765 193.78506413 5.59658005 197.53805042 9.31958008 201.35668945 C11.89873749 204.01965943 11.89873749 204.01965943 15 206 C15.00916265 199.52560354 14.97130813 193.05264464 14.90234375 186.57861328 C14.88429158 184.38108353 14.87659545 182.18344128 14.87988281 179.98583984 C15.0189043 160.67725417 15.0189043 160.67725417 5.625 144.3125 C4.75875 143.549375 3.8925 142.78625 3 142 C1.65273054 140.51250453 0.32069856 139.01113636 -1 137.5 C-5.07626401 132.89138808 -9.25877854 128.62269774 -13.9375 124.625 C-17.63982374 121.41444601 -21.18757133 118.03753965 -24 114 C-24 113.34 -24 112.68 -24 112 C-24.66 112 -25.32 112 -26 112 C-29 106.375 -29 106.375 -29 103 C-29.66 103 -30.32 103 -31 103 C-34.47972009 91.20081291 -34.42930986 79.64713429 -34.33618164 67.44824219 C-34.31240084 64.11108549 -34.31566356 60.77472112 -34.32226562 57.4375 C-34.31669309 55.29426611 -34.3095859 53.15103555 -34.30078125 51.0078125 C-34.30169266 50.02120636 -34.30260406 49.03460022 -34.30354309 48.01809692 C-34.24570601 42.34346381 -33.6134576 37.44617213 -32 32 C-31.34 32 -30.68 32 -30 32 C-29.78988281 31.13938965 -29.57976562 30.2787793 -29.36328125 29.39208984 C-27.67582351 25.19339036 -25.38718712 22.84296577 -22.1875 19.7265625 C-21.61797607 19.15795502 -21.04845215 18.58934753 -20.46166992 18.00350952 C-19.26270235 16.81055814 -18.05890336 15.62244499 -16.85058594 14.43896484 C-14.99542036 12.62051099 -13.15695959 10.78635614 -11.3203125 8.94921875 C-10.15198461 7.79071496 -8.98274523 6.63312949 -7.8125 5.4765625 C-6.98431763 4.6517186 -6.98431763 4.6517186 -6.1394043 3.81021118 C-2.23218643 0 -2.23218643 0 0 0 Z " fill="#FAFAFA" transform="translate(217,93)"/>
<path d="M0 0 C0.00146656 0.57315382 0.00293312 1.14630764 0.00444412 1.73682976 C0.04158539 15.71869335 0.10069648 29.70032203 0.18390274 43.68198967 C0.22361849 50.44359582 0.25604864 57.20508685 0.27099609 63.96679688 C0.28545096 70.49623707 0.32064749 77.02537748 0.36830902 83.5546608 C0.38310849 86.04159563 0.39104019 88.52858143 0.39188385 91.01556015 C0.39425944 94.50799043 0.42138916 97.999439 0.45410156 101.49169922 C0.4490712 102.51237991 0.44404083 103.53306061 0.43885803 104.58467102 C0.53841243 111.4865691 2.05191779 116.78051172 5 123 C5.433125 123.99 5.86625 124.98 6.3125 126 C10.07122082 132.68217034 14.11499945 138.82549957 20.2265625 143.55078125 C22.65618826 145.53622433 24.7874163 147.77489815 27 150 C29.50350551 152.39352036 32.0325503 154.75948192 34.5625 157.125 C35.62041748 158.1152417 35.62041748 158.1152417 36.69970703 159.12548828 C45.19547441 167.06705838 53.77296167 174.91368587 62.4296875 182.6796875 C65.85982297 185.77619277 69.26164083 188.90312416 72.65551758 192.03930664 C76.19906717 195.30311752 79.83006468 198.43386189 83.57421875 201.46484375 C85.24372865 203.26242564 85.61216369 204.60575718 86 207 C86.66 207 87.32 207 88 207 C89.60725635 210.21451269 89.05748185 213.43612536 89 217 C82.75611512 217.04969116 76.51234712 217.08585699 70.26831055 217.10986328 C68.14719638 217.11987844 66.02609587 217.13349446 63.9050293 217.15087891 C60.84420384 217.17532525 57.78356203 217.18652825 54.72265625 217.1953125 C53.3158535 217.21079636 53.3158535 217.21079636 51.88063049 217.22659302 C35.25276556 217.22938316 24.29980561 210.10574867 12.56640625 198.6171875 C11.29603516 197.32167969 11.29603516 197.32167969 10 196 C1.70499644 187.46884821 1.70499644 187.46884821 -7.0625 179.4375 C-15.6649229 172.05877632 -24.13310851 164.41633484 -29 154 C-29.48550103 152.97387682 -29.48550103 152.97387682 -29.98081017 151.92702389 C-32.80979865 145.50167531 -33.58544898 140.10147517 -33.54931641 133.12524414 C-33.55953827 132.08806747 -33.56976013 131.05089081 -33.58029175 129.98228455 C-33.60789727 126.58300138 -33.60618504 123.18453759 -33.6015625 119.78515625 C-33.60934598 117.40441084 -33.61801728 115.02366819 -33.62753296 112.64292908 C-33.64241672 107.66428606 -33.6419041 102.68592682 -33.63134766 97.70727539 C-33.619756 91.34762386 -33.65364351 84.98913685 -33.700037 78.62967777 C-33.72959012 73.71635726 -33.73124468 68.80331484 -33.72501755 63.88992119 C-33.7260398 61.5461032 -33.73643662 59.20226879 -33.75664139 56.85853767 C-33.94285389 32.24171136 -33.94285389 32.24171136 -27 25 C-26.01 24.67 -25.02 24.34 -24 24 C-23.67 23.34 -23.34 22.68 -23 22 C-22 20 -22 20 -19 19 C-18.731875 18.443125 -18.46375 17.88625 -18.1875 17.3125 C-16.467157 13.96235837 -13.91424712 11.37574493 -11 9 C-10.34 9 -9.68 9 -9 9 C-8.773125 8.443125 -8.54625 7.88625 -8.3125 7.3125 C-6.49644015 4.11277551 -3.9498923 0 0 0 Z " fill="#FAFAFA" transform="translate(123,187)"/>
<path d="M0 0 C3.44770244 1.54277441 5.16973882 3.32050283 7.515625 6.2890625 C9.80161523 8.92396703 12.45307119 11.09399487 15.09765625 13.359375 C17.53582901 15.46211126 19.77745606 17.66903928 22 20 C22.73734375 20.76570313 23.4746875 21.53140625 24.234375 22.3203125 C25.04390625 23.18398437 25.8534375 24.04765625 26.6875 24.9375 C27.45449219 25.75089844 28.22148437 26.56429687 29.01171875 27.40234375 C33.48700587 33.24923164 33.28835857 39.31367455 33.25878906 46.3605957 C33.2622937 47.39064728 33.26579834 48.42069885 33.26940918 49.48196411 C33.27819614 52.87997216 33.27238665 56.27777116 33.265625 59.67578125 C33.26697283 62.04461202 33.26891435 64.41344252 33.27142334 66.78227234 C33.27437076 71.74606969 33.27009032 76.70979501 33.26074219 81.67358398 C33.24936665 88.02194382 33.25589761 94.37013417 33.26788712 100.71848774 C33.27513194 105.61109176 33.27280541 110.50365596 33.26763153 115.39626122 C33.26630132 117.73612679 33.26792065 120.07599602 33.27259064 122.41585732 C33.27769686 125.69440839 33.26988727 128.9726896 33.25878906 132.2512207 C33.26283752 133.20996597 33.26688599 134.16871124 33.27105713 135.1565094 C33.23423096 141.05961335 32.47040452 146.27845341 31 152 C30.34 152 29.68 152 29 152 C28.81824219 152.61488281 28.63648438 153.22976563 28.44921875 153.86328125 C28.19785156 154.67152344 27.94648438 155.47976563 27.6875 156.3125 C27.44386719 157.11300781 27.20023437 157.91351563 26.94921875 158.73828125 C25.91346208 161.20619529 24.9839836 162.23393679 23 164 C20.30815141 166.68726282 17.6224011 169.38012475 14.94921875 172.0859375 C9.73736916 177.34854156 4.54140089 182.53208832 -1.109375 187.328125 C-3.33647079 189.29754029 -5.41214954 191.38374342 -7.5 193.5 C-19.28002198 205.38070593 -32.18355411 216.92310619 -49.72021484 217.11352539 C-51.55046337 217.11336838 -53.38071707 217.10779743 -55.2109375 217.09765625 C-56.17907379 217.0962413 -57.14721008 217.09482635 -58.14468384 217.09336853 C-61.22148799 217.08779365 -64.29821803 217.07524577 -67.375 217.0625 C-69.46744686 217.05748175 -71.55989487 217.05291941 -73.65234375 217.04882812 C-78.7682575 217.03783245 -83.88411621 217.02058515 -89 217 C-89.11277356 210.65811368 -87.71931051 207.11627641 -84 202 C-82.04380942 200.02478033 -80.03126243 198.25086118 -77.8671875 196.5078125 C-75.97228994 195.04410019 -75.97228994 195.04410019 -74.3828125 193.3046875 C-73 192 -73 192 -71 192 C-70.67 191.01 -70.34 190.02 -70 189 C-68.609375 187.59765625 -68.609375 187.59765625 -66.75 186.0625 C-62.94984273 182.84121973 -59.2734627 179.51525397 -55.625 176.125 C-51.79610994 172.57496315 -47.95420596 169.04387782 -44.0625 165.5625 C-39.33221436 161.32607779 -34.68727211 157.00174027 -30.046875 152.66748047 C-26.93884474 149.77205997 -23.80209727 146.93643982 -20.5625 144.1875 C-10.89653101 135.77872527 -2.14015706 124.47581684 -0.71261024 111.35944939 C-0.5939419 108.4074713 -0.5635251 105.46779633 -0.56762695 102.51342773 C-0.5574353 101.40020645 -0.54724365 100.28698517 -0.53674316 99.14002991 C-0.5067292 95.48783255 -0.49736471 91.83589799 -0.48828125 88.18359375 C-0.47142602 85.64053992 -0.45327465 83.09749438 -0.43388367 80.55445862 C-0.39130658 74.56238356 -0.3617292 68.57038284 -0.33856028 62.5782128 C-0.31142883 55.7509684 -0.26752259 48.92386326 -0.22227156 42.09671867 C-0.12963739 28.06455494 -0.05785999 14.03234716 0 0 Z " fill="#FBFBFB" transform="translate(373,187)"/>
<path d="M0 0 C3.51248355 1.7095186 5.97101447 4.22856925 8.62109375 7.02734375 C9.14574219 7.56166016 9.67039062 8.09597656 10.2109375 8.64648438 C11.66979883 10.14781888 13.10863394 11.64717822 14.49609375 13.21484375 C15.01184967 13.73761398 15.52760559 14.26038422 16.05899048 14.79899597 C18.10920694 18.24551995 17.89889071 21.51413291 17.85253906 25.40820312 C17.85560562 26.64302177 17.85560562 26.64302177 17.85873413 27.90278625 C17.86174009 30.62161536 17.84326982 33.33983679 17.82421875 36.05859375 C17.82116051 37.94901377 17.81928488 39.83943605 17.81854248 41.7298584 C17.81394047 45.69092438 17.7995189 49.65178695 17.77734375 53.61279297 C17.7490616 58.69045678 17.73813195 63.7679604 17.73366165 68.8456955 C17.72950465 72.74901939 17.71968479 76.65231092 17.70778656 80.55561829 C17.70208893 82.42791994 17.69732855 84.30022468 17.69351959 86.17253113 C17.68664451 88.78890441 17.67300602 91.40515152 17.65722656 94.02148438 C17.6561087 94.79563187 17.65499084 95.56977936 17.65383911 96.36738586 C17.62655495 99.78341578 17.57118776 102.9497831 16.49609375 106.21484375 C15.83609375 106.21484375 15.17609375 106.21484375 14.49609375 106.21484375 C14.33959351 107.33572388 14.33959351 107.33572388 14.17993164 108.47924805 C13.43784906 111.44784331 12.57394231 112.7298672 10.5546875 114.984375 C9.97138672 115.64501953 9.38808594 116.30566406 8.78710938 116.98632812 C7.86961914 117.99663086 7.86961914 117.99663086 6.93359375 119.02734375 C6.31806641 119.72021484 5.70253906 120.41308594 5.06835938 121.12695312 C3.55261026 122.83070213 2.02851461 124.52609881 0.49609375 126.21484375 C-2.8798191 125.08953947 -3.78837424 124.05430758 -6.06640625 121.40234375 C-6.96552734 120.37173828 -6.96552734 120.37173828 -7.8828125 119.3203125 C-9.40039374 117.3492853 -10.48293583 115.47520114 -11.50390625 113.21484375 C-12.16390625 113.21484375 -12.82390625 113.21484375 -13.50390625 113.21484375 C-18.95391233 102.27613195 -19.17240319 92.75326415 -18.9921875 80.7890625 C-18.98284058 78.94677194 -18.97573337 77.10446879 -18.9707489 75.26216125 C-18.95182675 70.45659956 -18.90285702 65.65181583 -18.847229 60.84655762 C-18.79571403 55.92580686 -18.77316658 51.00492813 -18.74804688 46.08398438 C-18.69472101 36.46059916 -18.60959178 26.83778661 -18.50390625 17.21484375 C-17.84390625 17.21484375 -17.18390625 17.21484375 -16.50390625 17.21484375 C-16.29378906 16.52132812 -16.08367187 15.8278125 -15.8671875 15.11328125 C-14.08127195 11.31629173 -11.63008778 8.78918555 -8.69140625 5.83984375 C-8.16998047 5.28167969 -7.64855469 4.72351563 -7.11132812 4.1484375 C-3.28796872 0.282119 -3.28796872 0.282119 0 0 Z " fill="#F9F9F9" transform="translate(248.50390625,61.78515625)"/>
<path d="M0 0 C0.99 0 1.98 0 3 0 C3.33 39.27 3.66 78.54 4 119 C3.34 117.68 2.68 116.36 2 115 C1.67 114.67 1.34 114.34 1 114 C0.89220145 112.52027192 0.85318144 111.03547028 0.84178162 109.55186462 C0.82709839 108.11098228 0.82709839 108.11098228 0.81211853 106.64099121 C0.80636307 105.57860229 0.8006076 104.51621338 0.79467773 103.42163086 C0.78477814 102.30957779 0.77487854 101.19752472 0.76467896 100.05177307 C0.73295477 96.35615202 0.70826353 92.66051809 0.68359375 88.96484375 C0.66303364 86.41036128 0.64203744 83.85588229 0.62062073 81.30140686 C0.57096433 75.25241509 0.52572441 69.2034057 0.48259836 63.15436512 C0.43326753 56.26931425 0.37833405 49.38431169 0.32291877 42.49930751 C0.20902397 28.33291675 0.10220134 14.16647961 0 0 Z " fill="#424242" transform="translate(122,186)"/>
<path d="M0 0 C0.99 0 1.98 0 3 0 C3.66 1.32 4.32 2.64 5 4 C4.34 4 3.68 4 3 4 C2.67 30.73 2.34 57.46 2 85 C1.34 85 0.68 85 0 85 C0 56.95 0 28.9 0 0 Z " fill="#C3C3C3" transform="translate(326,140)"/>
<path d="M0 0 C2 3.875 2 3.875 2 5 C18.17 5 34.34 5 51 5 C47.5184646 8.4815354 42.98338261 8.05301539 38.27978516 8.11352539 C36.44953663 8.11336838 34.61928293 8.10779743 32.7890625 8.09765625 C31.82092621 8.0962413 30.85278992 8.09482635 29.85531616 8.09336853 C26.77851201 8.08779365 23.70178197 8.07524577 20.625 8.0625 C18.53255314 8.05748175 16.44010513 8.05291941 14.34765625 8.04882812 C9.2317425 8.03783245 4.11588379 8.02058515 -1 8 C-1.125 2.25 -1.125 2.25 0 0 Z " fill="#BBBBBB" transform="translate(285,396)"/>
<path d="M0 0 C0.99 0.33 1.98 0.66 3 1 C2.67 1.66 2.34 2.32 2 3 C1.87696927 6.05053097 1.81419677 9.07966737 1.79467773 12.13134766 C1.78477814 13.07773605 1.77487854 14.02412445 1.76467896 14.99919128 C1.73300978 18.13745596 1.70828512 21.27573579 1.68359375 24.4140625 C1.6630289 26.58597209 1.64203256 28.75787764 1.62062073 30.92977905 C1.56535161 36.65410085 1.51596369 42.37845905 1.46777344 48.10284424 C1.41759372 53.94099173 1.36188926 59.77908617 1.30664062 65.6171875 C1.19899986 77.07807971 1.09756806 88.53901793 1 100 C0.67 100 0.34 100 0 100 C0 67 0 34 0 0 Z " fill="#EDEDED" transform="translate(280,94)"/>
<path d="M0 0 C0.33 0.66 0.66 1.32 1 2 C-0.28062485 3.7074998 -1.61767557 5.37373596 -3 7 C-3.66 7 -4.32 7 -5 7 C-5.38393921 7.87072144 -5.38393921 7.87072144 -5.77563477 8.7590332 C-7.11932446 11.21840064 -8.61395933 12.87262787 -10.58984375 14.85546875 C-11.29173828 15.55994141 -11.99363281 16.26441406 -12.71679688 16.99023438 C-13.44962891 17.71533203 -14.18246094 18.44042969 -14.9375 19.1875 C-15.66646484 19.92419922 -16.39542969 20.66089844 -17.14648438 21.41992188 C-17.84966797 22.12052734 -18.55285156 22.82113281 -19.27734375 23.54296875 C-19.91921631 24.18258545 -20.56108887 24.82220215 -21.22241211 25.48120117 C-23 27 -23 27 -26 28 C-24.39626852 23.99482604 -21.57886014 21.3228902 -18.5546875 18.359375 C-17.75987473 17.56880707 -17.75987473 17.56880707 -16.94900513 16.76226807 C-15.26232175 15.08674325 -13.56880436 13.41832278 -11.875 11.75 C-10.72740612 10.61244149 -9.58026539 9.47442564 -8.43359375 8.3359375 C-5.62761863 5.55196535 -2.81549536 2.7743424 0 0 Z " fill="#2F2F2F" transform="translate(303,324)"/>
<path d="M0 0 C0.33 1.32 0.66 2.64 1 4 C0.01 4.33 -0.98 4.66 -2 5 C-2 5.66 -2 6.32 -2 7 C-4.8125 9.6875 -4.8125 9.6875 -8 12 C-8.99 11.67 -9.98 11.34 -11 11 C-7.37 7.37 -3.74 3.74 0 0 Z " fill="#C5C5C5" transform="translate(246,62)"/>
<path d="M0 0 C0.66 0.33 1.32 0.66 2 1 C-4.29781636 10.3031573 -4.29781636 10.3031573 -8.9375 11.5625 C-9.948125 11.706875 -10.95875 11.85125 -12 12 C-8 8 -4 4 0 0 Z " fill="#C1C1C1" transform="translate(314,366)"/>
<path d="M0 0 C0 0.99 0 1.98 0 3 C-0.61875 3.2475 -1.2375 3.495 -1.875 3.75 C-4.11049208 4.80004165 -4.11049208 4.80004165 -4.875 6.8125 C-6.55805758 10.08511196 -9.11451985 11.74179814 -12 14 C-12.66 13.67 -13.32 13.34 -14 13 C-4.58997722 3.40546697 -4.58997722 3.40546697 0 0 Z " fill="#454545" transform="translate(318,310)"/>
<path d="M0 0 C2.31 0.33 4.62 0.66 7 1 C6.67 1.99 6.34 2.98 6 4 C7.32 3.67 8.64 3.34 10 3 C10.33 4.32 10.66 5.64 11 7 C6.00724943 5.72278474 3.42388092 3.82669043 0 0 Z " fill="#D1D1D1" transform="translate(144,392)"/>
<path d="M0 0 C0.33 0.66 0.66 1.32 1 2 C-0.25 5.5625 -0.25 5.5625 -2 9 C-2.99 9.33 -3.98 9.66 -5 10 C-5 10.66 -5 11.32 -5 12 C-5.66 11.67 -6.32 11.34 -7 11 C-4.69 7.37 -2.38 3.74 0 0 Z " fill="#B5B5B5" transform="translate(368,312)"/>
<path d="M0 0 C0.33 0.66 0.66 1.32 1 2 C-1.41556126 5.19199167 -3.68003538 7.74716687 -7 10 C-7.66 9.67 -8.32 9.34 -9 9 C-6.03 6.03 -3.06 3.06 0 0 Z " fill="#464646" transform="translate(303,324)"/>
<path d="M0 0 C0.33 1.32 0.66 2.64 1 4 C-1.61514317 6.12038635 -4.19637616 8.13091744 -7 10 C-5.33248852 6.05860922 -2.77289351 3.2107188 0 0 Z " fill="#AEAEAE" transform="translate(270,217)"/>
<path d="M0 0 C3.16115776 1.36983503 3.9927092 1.9890638 6 5 C4.68 4.67 3.36 4.34 2 4 C1.67 4.99 1.34 5.98 1 7 C0.67 4.69 0.34 2.38 0 0 Z " fill="#E2E2E2" transform="translate(374,188)"/>
<path d="M0 0 C0.66 1.32 1.32 2.64 2 4 C0.71034824 5.37562854 -0.62689293 6.70766393 -2 8 C-2.66 8 -3.32 8 -4 8 C-2.87548273 5.0280615 -1.77706209 2.66559313 0 0 Z " fill="#C4C4C4" transform="translate(97,211)"/>
</svg>
